# xmcd CD database file
#
# Track frame offsets:
#	150
#	42051
#	76354
#	115807
#	144482
#	196301
#	246617
#	279141
#
# Disc length: 4313 seconds
#
# Revision: 1
# Processed by: cddbd v1.5.2PL0 Copyright (c) Steve Scherf et al.
# Submitted via: CDex 1.79
#
DISCID=6910d708
DTITLE=K.M.T. - Africans with Mainframes
DYEAR=2016
DGENRE=Jazz
TTITLE0=Anachronistic
TTITLE1=Hierarchical
TTITLE2=Book Of Gaties
TTITLE3=Negroid Spinx
TTITLE4=Qustul Artifacts
TTITLE5=Naqada
TTITLE6=K.M.T.
TTITLE7=Meroitic Script
EXTD=YEAR: 2016
EXTT0=
EXTT1=
EXTT2=
EXTT3=
EXTT4=
EXTT5=
EXTT6=
EXTT7=
PLAYORDER=
